if (_typeface_js && _typeface_js.loadFace) _typeface_js.loadFace({"glyphs":{"S":{"x_min":15,"x_max":270,"ha":286,"o":"m 270 133 q 236 31 270 75 q 142 -16 199 -16 q 50 29 85 -16 q 15 133 15 74 l 15 242 l 96 242 l 96 133 q 142 63 96 63 q 178 88 165 63 q 189 133 189 108 l 189 237 q 144 386 189 312 q 60 514 102 451 q 15 688 15 596 l 15 792 q 48 894 15 850 q 142 943 85 943 q 236 895 199 943 q 270 792 270 849 l 270 682 l 189 682 l 189 792 q 142 861 189 861 q 107 839 118 861 q 96 792 96 816 l 96 688 q 140 539 96 612 q 182 474 161 506 q 224 409 203 442 q 270 237 270 329 l 270 133 "},"¦":{"x_min":57,"x_max":138,"ha":191,"o":"m 138 509 l 57 509 l 57 996 l 138 996 l 138 509 m 138 -69 l 57 -69 l 57 415 l 138 415 l 138 -69 "},"/":{"x_min":8.140625,"x_max":309.265625,"ha":317,"o":"m 309 975 l 88 -65 l 8 -48 l 229 992 l 309 975 "},"y":{"x_min":8.1875,"x_max":266.171875,"ha":274,"o":"m 266 706 q 245 593 258 660 q 215 435 232 526 l 178 229 l 178 180 l 178 -10 l 95 -10 l 95 101 q 96 166 95 139 q 96 214 96 194 q 60 457 96 284 q 33 581 46 519 q 8 706 21 642 l 91 706 l 136 421 l 181 706 l 266 706 "},"Ž":{"x_min":8.140625,"x_max":290.8125,"ha":267,"o":"m 267 937 l 100 69 l 242 69 l 242 -10 l 8 -10 l 174 856 l 33 856 l 33 937 l 267 937 m 290 1111 l 193 973 l 113 973 l 15 1111 l 113 1111 l 153 1051 l 193 1111 l 290 1111 "},"Á":{"x_min":9.5,"x_max":322.828125,"ha":290,"o":"m 322 -10 l 239 -10 l 219 162 l 112 162 l 91 -10 l 9 -10 l 124 937 l 204 937 l 322 -10 m 209 242 l 164 612 l 120 242 l 209 242 m 241 1111 l 158 973 l 87 973 l 143 1111 l 241 1111 "},"g":{"x_min":17,"x_max":272,"ha":290,"o":"m 272 -10 l 191 -10 l 191 8 q 127 -16 163 -16 q 42 33 73 -16 q 17 133 17 76 l 17 561 q 50 663 17 619 q 144 712 87 712 q 238 664 201 712 q 272 561 272 619 l 272 451 l 191 451 l 191 561 q 144 630 191 630 q 109 608 120 630 q 98 561 98 585 l 98 133 q 108 88 98 107 q 144 63 121 63 q 191 133 191 63 l 191 306 l 132 306 l 132 387 l 272 387 l 272 -10 "},"–":{"x_min":56.96875,"x_max":253.65625,"ha":313,"o":"m 253 307 l 56 307 l 56 388 l 253 388 l 253 307 "},"ë":{"x_min":19,"x_max":265.65625,"ha":254,"o":"m 239 -10 l 19 -10 l 19 706 l 238 706 l 238 625 l 100 625 l 100 388 l 215 388 l 215 307 l 100 307 l 100 69 l 239 69 l 239 -10 m 265 741 l 184 741 l 184 822 l 265 822 l 265 741 m 149 741 l 68 741 l 68 822 l 149 822 l 149 741 "},"Î":{"x_min":-56.15625,"x_max":219.875,"ha":116,"o":"m 100 -10 l 19 -10 l 19 937 l 100 937 l 100 -10 m 219 973 l 122 973 l 81 1032 l 41 973 l -56 973 l 41 1111 l 122 1111 l 219 973 "},"e":{"x_min":19,"x_max":239,"ha":250,"o":"m 239 -10 l 19 -10 l 19 706 l 238 706 l 238 625 l 100 625 l 100 388 l 215 388 l 215 307 l 100 307 l 100 69 l 239 69 l 239 -10 "},"Ã":{"x_min":9.5,"x_max":322.828125,"ha":290,"o":"m 322 -10 l 239 -10 l 219 162 l 112 162 l 91 -10 l 9 -10 l 124 937 l 204 937 l 322 -10 m 209 242 l 164 612 l 120 242 l 209 242 m 290 999 q 210 972 242 972 q 172 983 195 972 q 140 995 151 995 q 59 964 115 995 l 59 1048 q 140 1075 108 1075 q 177 1064 155 1075 q 210 1052 199 1052 q 290 1084 235 1052 l 290 999 "},"J":{"x_min":2,"x_max":257,"ha":275,"o":"m 257 133 q 223 30 257 74 q 129 -16 186 -16 q 37 29 72 -16 q 2 133 2 74 l 2 242 l 83 242 l 83 133 q 93 88 83 107 q 129 63 106 63 q 176 133 176 63 l 176 937 l 257 937 l 257 133 "},"»":{"x_min":46.125,"x_max":406.25,"ha":429,"o":"m 406 347 l 252 17 l 179 50 l 317 347 l 179 643 l 252 676 l 406 347 m 273 347 l 119 18 l 46 51 l 183 347 l 46 643 l 119 677 l 273 347 "},"©":{"x_min":17,"x_max":503,"ha":521,"o":"m 503 133 q 469 31 503 74 q 376 -16 432 -16 l 143 -16 q 50 31 87 -16 q 17 133 17 74 l 17 561 q 50 663 17 619 q 143 712 87 712 l 376 712 q 469 663 431 712 q 503 561 503 619 l 503 133 m 422 133 l 422 561 q 411 606 422 586 q 375 631 398 631 l 144 631 q 108 606 121 631 q 98 561 98 586 l 98 133 q 108 88 98 107 q 144 64 121 64 l 375 64 q 411 88 398 64 q 422 133 422 107 m 388 248 q 354 145 388 189 q 260 98 317 98 q 168 144 204 98 q 133 248 133 190 l 133 445 q 168 549 133 503 q 260 596 203 596 q 354 548 317 596 q 388 445 388 504 l 388 393 l 307 393 l 307 420 q 260 514 307 514 q 224 491 237 514 q 214 445 214 471 l 214 248 q 224 203 214 222 q 260 179 237 179 q 303 227 294 179 q 305 254 304 236 q 307 301 307 272 l 388 301 l 388 248 "},"ò":{"x_min":16,"x_max":271,"ha":290,"o":"m 271 133 q 237 30 271 73 q 143 -16 199 -16 q 51 29 86 -16 q 16 133 16 74 l 16 561 q 51 665 16 619 q 143 712 86 712 q 237 664 200 712 q 271 561 271 621 l 271 133 m 190 132 l 190 561 q 143 630 190 630 q 107 606 120 630 q 97 561 97 587 l 97 132 q 107 88 97 107 q 143 63 120 63 q 190 132 190 63 m 228 742 l 157 742 l 74 880 l 172 880 l 228 742 "},"^":{"x_min":27.8125,"x_max":377.09375,"ha":406,"o":"m 377 349 l 297 334 l 202 782 l 107 334 l 27 349 l 152 937 l 252 937 l 377 349 "},"«":{"x_min":21.703125,"x_max":381.84375,"ha":429,"o":"m 381 50 l 309 17 l 155 347 l 309 676 l 381 643 l 244 347 l 381 50 m 248 51 l 175 18 l 21 347 l 175 677 l 248 643 l 111 347 l 248 51 "},"D":{"x_min":19,"x_max":273,"ha":290,"o":"m 273 139 q 239 36 273 80 q 146 -10 202 -10 l 19 -10 l 19 937 l 146 937 q 239 889 202 937 q 273 787 273 845 l 273 139 m 192 139 l 192 787 q 146 856 192 856 l 100 856 l 100 69 l 146 69 q 192 139 192 69 "},"ÿ":{"x_min":8.1875,"x_max":266.171875,"ha":231,"o":"m 266 706 q 245 593 258 660 q 215 435 232 526 l 178 229 l 178 180 l 178 -10 l 95 -10 l 95 101 q 96 166 95 139 q 96 214 96 194 q 60 457 96 284 q 33 581 46 519 q 8 706 21 642 l 91 706 l 136 421 l 181 706 l 266 706 m 253 741 l 172 741 l 172 822 l 253 822 l 253 741 m 137 741 l 56 741 l 56 822 l 137 822 l 137 741 "},"í":{"x_min":1.84375,"x_max":155.796875,"ha":116,"o":"m 100 -10 l 19 -10 l 19 706 l 100 706 l 100 -10 m 155 880 l 72 742 l 1 742 l 57 880 l 155 880 "},"ˆ":{"x_min":29.84375,"x_max":305.875,"ha":337,"o":"m 305 973 l 208 973 l 167 1032 l 127 973 l 29 973 l 127 1111 l 208 1111 l 305 973 "},"w":{"x_min":14,"x_max":380.6875,"ha":395,"o":"m 380 706 l 321 -10 l 241 -10 l 195 254 l 150 -10 l 70 -10 l 14 706 l 96 706 l 123 270 l 196 637 l 268 270 l 298 706 l 380 706 "},"$":{"x_min":37,"x_max":292,"ha":330,"o":"m 292 132 q 266 42 292 82 q 193 -13 238 -2 l 193 -69 l 135 -69 l 135 -13 q 62 42 89 -2 q 37 132 37 82 l 37 242 l 118 242 l 118 132 q 164 63 118 63 q 200 87 186 63 q 211 132 211 107 l 211 237 q 165 386 211 311 q 123 451 144 419 q 81 516 102 483 q 37 688 37 598 l 37 793 q 62 883 37 843 q 135 940 89 928 l 135 996 l 193 996 l 193 940 q 266 883 238 928 q 292 793 292 843 l 292 683 l 211 683 l 211 793 q 164 862 211 862 q 129 839 140 862 q 118 793 118 816 l 118 688 q 163 539 118 613 q 205 474 184 506 q 247 408 226 441 q 292 237 292 327 l 292 132 "},"\\":{"x_min":6.78125,"x_max":307.90625,"ha":316,"o":"m 307 -48 l 227 -65 l 6 975 l 86 992 l 307 -48 "},"Ì":{"x_min":-11.71875,"x_max":142.234375,"ha":116,"o":"m 100 -10 l 19 -10 l 19 937 l 100 937 l 100 -10 m 142 973 l 71 973 l -11 1111 l 86 1111 l 142 973 "},"’":{"x_min":29.84375,"x_max":183.796875,"ha":201,"o":"m 183 937 l 100 799 l 29 799 l 85 937 l 183 937 "},"-":{"x_min":56.96875,"x_max":311.296875,"ha":370,"o":"m 311 307 l 56 307 l 56 388 l 311 388 l 311 307 "},"Q":{"x_min":17,"x_max":301.15625,"ha":314,"o":"m 301 -10 l 144 -10 q 52 35 87 -10 q 17 139 17 80 l 17 792 q 52 896 17 850 q 144 943 87 943 q 238 895 201 943 q 272 792 272 852 l 272 138 q 253 69 272 98 l 301 69 l 301 -10 m 191 138 l 191 792 q 144 861 191 861 q 108 838 121 861 q 98 792 98 818 l 98 138 q 108 93 98 112 q 144 69 121 69 q 191 138 191 69 "},"M":{"x_min":19,"x_max":308,"ha":326,"o":"m 308 -10 l 227 -10 l 227 491 l 163 143 l 100 491 l 100 -10 l 19 -10 l 19 937 l 97 937 l 163 569 l 229 937 l 308 937 l 308 -10 "},"C":{"x_min":17,"x_max":272,"ha":287,"o":"m 272 133 q 238 30 272 73 q 144 -16 200 -16 q 52 29 87 -16 q 17 133 17 74 l 17 792 q 52 896 17 850 q 144 943 87 943 q 238 895 201 943 q 272 792 272 852 l 272 682 l 191 682 l 191 792 q 144 861 191 861 q 108 837 121 861 q 98 792 98 818 l 98 133 q 108 88 98 107 q 144 63 121 63 q 191 133 191 63 l 191 242 l 272 242 l 272 133 "},"œ":{"x_min":53,"x_max":447,"ha":490,"o":"m 447 -10 l 227 -10 l 227 8 q 163 -16 199 -16 q 78 33 109 -16 q 53 133 53 76 l 53 561 q 78 661 53 617 q 163 712 109 712 q 227 686 199 712 l 227 706 l 446 706 l 446 625 l 308 625 l 308 388 l 423 388 l 423 307 l 308 307 l 308 69 l 447 69 l 447 -10 m 227 132 l 227 561 q 180 630 227 630 q 144 606 157 630 q 134 561 134 586 l 134 132 q 144 88 134 107 q 180 63 157 63 q 227 132 227 63 "},"!":{"x_min":38,"x_max":119.53125,"ha":163,"o":"m 119 937 l 108 161 l 49 161 l 38 937 l 119 937 m 119 -10 l 38 -10 l 38 69 l 119 69 l 119 -10 "},"È":{"x_min":19,"x_max":239,"ha":254,"o":"m 239 -10 l 19 -10 l 19 937 l 238 937 l 238 856 l 100 856 l 100 503 l 215 503 l 215 422 l 100 422 l 100 69 l 239 69 l 239 -10 m 211 973 l 140 973 l 57 1111 l 155 1111 l 211 973 "},"{":{"x_min":7.015625,"x_max":319.96875,"ha":351,"o":"m 319 -69 l 250 -69 q 156 -20 193 -69 q 123 80 123 21 l 123 353 q 111 399 123 376 q 76 422 100 422 l 7 422 l 7 503 l 76 503 q 112 527 99 503 q 123 573 123 546 l 123 845 q 156 947 123 903 q 250 996 193 996 l 319 996 l 319 914 l 250 914 q 215 892 227 914 q 204 845 204 869 l 204 596 q 138 463 204 504 q 204 329 204 421 l 204 80 q 214 35 204 54 q 250 11 227 11 l 319 11 l 319 -69 "},"X":{"x_min":14.921875,"x_max":274,"ha":290,"o":"m 274 -10 l 189 -10 l 144 273 l 99 -10 l 14 -10 l 103 463 l 14 937 l 99 937 l 144 652 l 189 937 l 274 937 l 186 463 l 274 -10 "},"ô":{"x_min":16,"x_max":305.875,"ha":290,"o":"m 271 133 q 237 30 271 73 q 143 -16 199 -16 q 51 29 86 -16 q 16 133 16 74 l 16 561 q 51 665 16 619 q 143 712 86 712 q 237 664 200 712 q 271 561 271 621 l 271 133 m 190 132 l 190 561 q 143 630 190 630 q 107 606 120 630 q 97 561 97 587 l 97 132 q 107 88 97 107 q 143 63 120 63 q 190 132 190 63 m 305 742 l 208 742 l 167 801 l 127 742 l 29 742 l 127 880 l 208 880 l 305 742 "},"#":{"x_min":34.59375,"x_max":434.0625,"ha":469,"o":"m 434 625 l 337 625 l 329 538 l 248 538 l 255 625 l 191 625 l 185 538 l 104 538 l 111 625 l 34 625 l 34 706 l 119 706 l 124 770 l 34 769 l 34 851 l 132 851 l 139 937 l 219 937 l 212 851 l 276 851 l 283 937 l 364 937 l 357 851 l 434 851 l 434 770 l 349 769 l 345 706 l 434 706 l 434 625 m 268 769 l 204 770 l 200 706 l 263 706 l 268 769 "},"Ê":{"x_min":12.84375,"x_max":288.875,"ha":254,"o":"m 239 -10 l 19 -10 l 19 937 l 238 937 l 238 856 l 100 856 l 100 503 l 215 503 l 215 422 l 100 422 l 100 69 l 239 69 l 239 -10 m 288 973 l 191 973 l 150 1032 l 110 973 l 12 973 l 110 1111 l 191 1111 l 288 973 "},")":{"x_min":29.234375,"x_max":233,"ha":260,"o":"m 233 463 q 205 190 233 307 q 169 66 192 130 q 112 -69 145 1 l 29 -69 q 124 190 97 74 q 152 463 152 310 q 124 736 152 615 q 29 996 97 851 l 112 996 q 169 860 145 925 q 205 736 192 795 q 233 463 233 618 "},"Å":{"x_min":9.5,"x_max":322.828125,"ha":290,"o":"m 322 -10 l 239 -10 l 219 162 l 112 162 l 91 -10 l 9 -10 l 124 937 l 204 937 l 322 -10 m 209 242 l 164 612 l 120 242 l 209 242 m 265 1071 q 235 1001 265 1030 q 166 973 207 973 q 96 1001 125 973 q 68 1071 68 1030 q 96 1139 68 1110 q 166 1169 125 1169 q 235 1139 207 1169 q 265 1071 265 1110 m 189 1070 q 166 1093 189 1093 q 143 1070 143 1093 q 166 1047 143 1047 q 189 1070 189 1047 "},"ø":{"x_min":13.75,"x_max":314.5625,"ha":326,"o":"m 314 743 l 276 604 q 282 561 282 579 l 282 133 q 248 30 282 73 q 155 -16 211 -16 q 109 -6 131 -16 l 93 -65 l 13 -48 l 42 60 q 28 132 28 92 l 28 561 q 63 665 28 619 q 155 712 98 712 q 217 693 188 712 l 235 760 l 314 743 m 192 602 q 155 630 180 630 q 119 606 132 630 q 109 561 109 587 l 109 297 l 192 602 m 201 132 l 201 329 l 130 73 q 154 63 141 63 q 201 132 201 63 "},"â":{"x_min":8.140625,"x_max":324.1875,"ha":290,"o":"m 324 -10 l 239 -10 l 221 104 l 109 104 l 91 -10 l 8 -10 l 124 706 l 203 706 l 324 -10 m 206 185 l 164 451 l 122 185 l 206 185 m 305 742 l 208 742 l 167 801 l 127 742 l 29 742 l 127 880 l 208 880 l 305 742 "},"}":{"x_min":29.640625,"x_max":342.6875,"ha":351,"o":"m 342 422 l 273 422 q 238 399 249 422 q 227 353 227 376 l 227 80 q 193 -20 227 23 q 99 -69 155 -69 l 29 -69 l 29 11 l 99 11 q 135 35 121 11 q 145 80 145 54 l 145 329 q 211 463 145 421 q 146 596 145 504 l 146 845 q 134 892 146 869 q 99 914 122 914 l 30 914 l 30 996 l 99 996 q 193 947 155 996 q 227 845 227 903 l 227 573 q 237 527 227 546 q 273 503 250 503 l 342 503 l 342 422 "},"‰":{"x_min":36,"x_max":754,"ha":775,"o":"m 754 138 q 724 37 754 83 q 637 -12 690 -12 q 539 40 571 -12 q 441 -12 507 -12 q 354 37 388 -12 q 325 138 325 83 l 325 335 q 325 344 325 340 q 325 354 325 349 l 237 -65 l 157 -48 l 281 538 q 163 440 252 440 q 71 486 107 440 q 36 589 36 531 l 36 787 q 71 890 36 845 q 163 937 107 937 q 256 889 219 937 q 290 787 290 846 l 290 589 q 290 579 290 584 q 289 570 290 574 l 378 992 l 458 975 l 334 391 q 440 488 364 488 q 539 432 506 488 q 637 488 572 488 q 724 436 691 488 q 754 335 754 392 l 754 138 m 673 138 l 673 335 q 626 405 673 405 q 590 380 603 405 q 580 335 580 360 l 580 138 q 590 93 580 112 q 626 69 603 69 q 673 138 673 69 m 209 590 l 209 787 q 163 856 209 856 q 127 832 140 856 q 117 787 117 813 l 117 590 q 127 545 117 564 q 163 520 140 520 q 209 590 209 520 m 499 138 l 499 335 q 452 405 499 405 q 416 380 429 405 q 406 335 406 360 l 406 138 q 416 93 406 112 q 452 69 429 69 q 499 138 499 69 "},"Ä":{"x_min":9.5,"x_max":322.828125,"ha":290,"o":"m 322 -10 l 239 -10 l 219 162 l 112 162 l 91 -10 l 9 -10 l 124 937 l 204 937 l 322 -10 m 209 242 l 164 612 l 120 242 l 209 242 m 282 972 l 201 972 l 201 1053 l 282 1053 l 282 972 m 166 972 l 85 972 l 85 1053 l 166 1053 l 166 972 "},"a":{"x_min":8.140625,"x_max":324.1875,"ha":334,"o":"m 324 -10 l 239 -10 l 221 104 l 109 104 l 91 -10 l 8 -10 l 124 706 l 203 706 l 324 -10 m 206 185 l 164 451 l 122 185 l 206 185 "},"—":{"x_min":56.96875,"x_max":368.953125,"ha":427,"o":"m 368 307 l 56 307 l 56 388 l 368 388 l 368 307 "},"=":{"x_min":57,"x_max":311,"ha":354,"o":"m 311 365 l 57 365 l 57 446 l 311 446 l 311 365 m 311 249 l 57 249 l 57 330 l 311 330 l 311 249 "},"N":{"x_min":19,"x_max":273,"ha":293,"o":"m 273 -10 l 194 -10 l 100 494 l 100 -10 l 19 -10 l 19 937 l 97 937 l 192 431 l 192 937 l 273 937 l 273 -10 "},"˚":{"x_min":39.34375,"x_max":236.015625,"ha":277,"o":"m 236 1071 q 206 1001 236 1030 q 137 973 178 973 q 67 1001 96 973 q 39 1071 39 1030 q 67 1139 39 1110 q 137 1169 96 1169 q 206 1139 178 1169 q 236 1071 236 1110 m 160 1070 q 137 1093 160 1093 q 114 1070 114 1093 q 137 1047 114 1047 q 160 1070 160 1047 "},"ú":{"x_min":17,"x_max":272,"ha":290,"o":"m 272 133 q 238 30 272 73 q 144 -16 200 -16 q 52 29 87 -16 q 17 133 17 74 l 17 706 l 98 706 l 98 132 q 108 88 98 107 q 144 63 121 63 q 191 132 191 63 l 191 706 l 272 706 l 272 133 m 241 880 l 158 742 l 87 742 l 143 880 l 241 880 "},"2":{"x_min":51,"x_max":306,"ha":339,"o":"m 306 -10 l 51 -10 l 51 237 q 96 408 51 326 q 138 473 117 440 q 180 539 159 505 q 225 688 225 614 l 225 792 q 214 837 225 818 q 178 861 201 861 q 132 792 132 861 l 132 682 l 51 682 l 51 792 q 86 896 51 850 q 178 943 121 943 q 272 894 234 943 q 306 792 306 850 l 306 688 q 260 517 306 599 q 218 451 239 483 q 176 386 197 418 q 132 237 132 311 l 132 69 l 306 69 l 306 -10 "},"ü":{"x_min":17,"x_max":282.65625,"ha":290,"o":"m 272 133 q 238 30 272 73 q 144 -16 200 -16 q 52 29 87 -16 q 17 133 17 74 l 17 706 l 98 706 l 98 132 q 108 88 98 107 q 144 63 121 63 q 191 132 191 63 l 191 706 l 272 706 l 272 133 m 282 741 l 201 741 l 201 822 l 282 822 l 282 741 m 166 741 l 85 741 l 85 822 l 166 822 l 166 741 "},"¯":{"x_min":56.96875,"x_max":368.28125,"ha":426,"o":"m 368 856 l 56 856 l 56 937 l 368 937 l 368 856 "},"Z":{"x_min":8.140625,"x_max":267.21875,"ha":277,"o":"m 267 937 l 100 69 l 242 69 l 242 -10 l 8 -10 l 174 856 l 33 856 l 33 937 l 267 937 "},"u":{"x_min":17,"x_max":272,"ha":290,"o":"m 272 133 q 238 30 272 73 q 144 -16 200 -16 q 52 29 87 -16 q 17 133 17 74 l 17 706 l 98 706 l 98 132 q 108 88 98 107 q 144 63 121 63 q 191 132 191 63 l 191 706 l 272 706 l 272 133 "},"˜":{"x_min":47.46875,"x_max":278.75,"ha":323,"o":"m 278 999 q 198 972 230 972 q 160 983 183 972 q 128 995 139 995 q 47 964 103 995 l 47 1048 q 128 1075 96 1075 q 165 1064 143 1075 q 198 1052 187 1052 q 278 1084 223 1052 l 278 999 "},"Ó":{"x_min":17,"x_max":272,"ha":290,"o":"m 272 133 q 238 30 272 73 q 144 -16 200 -16 q 52 29 87 -16 q 17 133 17 74 l 17 792 q 52 896 17 850 q 144 943 87 943 q 238 895 201 943 q 272 792 272 852 l 272 133 m 191 132 l 191 792 q 144 862 191 862 q 108 838 121 862 q 98 792 98 818 l 98 132 q 108 88 98 107 q 144 63 121 63 q 191 132 191 63 "},"k":{"x_min":19,"x_max":278.375,"ha":293,"o":"m 278 -10 l 193 -10 l 100 245 l 100 -10 l 19 -10 l 19 706 l 100 706 l 100 452 l 193 706 l 278 706 l 150 347 l 278 -10 "},"ˇ":{"x_min":26.453125,"x_max":301.8125,"ha":330,"o":"m 301 1111 l 204 973 l 124 973 l 26 1111 l 124 1111 l 164 1051 l 204 1111 l 301 1111 "},"Ù":{"x_min":17,"x_max":272,"ha":290,"o":"m 272 133 q 238 30 272 73 q 144 -16 200 -16 q 52 29 87 -16 q 17 133 17 74 l 17 937 l 98 937 l 98 132 q 108 87 98 106 q 144 63 121 63 q 191 132 191 63 l 191 937 l 272 937 l 272 133 m 228 973 l 157 973 l 74 1111 l 172 1111 l 228 973 "},"Ÿ":{"x_min":8.1875,"x_max":266.53125,"ha":231,"o":"m 266 937 l 206 539 q 178 347 194 474 q 176 292 177 321 q 175 231 175 263 q 175 181 175 211 q 177 109 176 150 q 178 38 177 68 q 178 -10 178 8 l 95 -10 l 95 307 q 87 382 95 325 q 65 539 80 440 l 8 937 l 91 937 l 136 579 l 181 937 l 266 937 m 253 972 l 172 972 l 172 1053 l 253 1053 l 253 972 m 137 972 l 56 972 l 56 1053 l 137 1053 l 137 972 "},"€":{"x_min":19.578125,"x_max":360.34375,"ha":385,"o":"m 360 937 l 344 856 l 230 856 q 195 832 206 856 q 184 786 184 809 l 184 590 l 314 590 l 297 509 l 184 509 l 184 417 l 278 417 l 262 336 l 184 336 l 184 138 q 194 93 184 114 q 230 69 207 69 l 357 69 l 357 -10 l 230 -10 q 136 37 173 -10 q 103 139 103 80 l 103 336 l 19 336 l 35 417 l 103 417 l 103 509 l 42 509 l 58 590 l 103 590 l 103 787 q 136 888 103 845 q 230 937 174 937 l 360 937 "},"¢":{"x_min":37,"x_max":292,"ha":323,"o":"m 292 596 q 266 505 292 545 q 193 448 238 459 l 193 393 l 135 393 l 135 448 q 62 505 89 459 q 37 596 37 545 l 37 792 q 62 883 37 843 q 135 940 89 928 l 135 996 l 193 996 l 193 940 q 266 883 238 928 q 292 792 292 843 l 292 740 l 211 740 l 211 767 q 164 862 211 862 q 128 838 141 862 q 118 792 118 818 l 118 596 q 128 550 118 569 q 164 526 141 526 q 206 574 198 526 q 211 648 211 592 l 292 648 l 292 596 "},"ß":{"x_min":57,"x_max":311,"ha":352,"o":"m 311 139 q 272 33 311 76 q 171 -10 233 -10 l 171 69 q 230 139 230 69 l 230 353 q 171 422 230 422 l 171 503 q 230 573 230 503 l 230 787 q 183 856 230 856 l 138 856 l 138 -126 l 57 -126 l 57 937 l 183 937 q 277 889 240 937 q 310 787 310 845 l 310 596 q 244 463 310 504 q 311 329 310 421 l 311 139 "},"é":{"x_min":19,"x_max":239,"ha":254,"o":"m 239 -10 l 19 -10 l 19 706 l 238 706 l 238 625 l 100 625 l 100 388 l 215 388 l 215 307 l 100 307 l 100 69 l 239 69 l 239 -10 m 224 880 l 141 742 l 70 742 l 126 880 l 224 880 "},"s":{"x_min":15,"x_max":270,"ha":285,"o":"m 270 133 q 236 30 270 76 q 142 -16 199 -16 q 50 29 85 -16 q 15 133 15 74 l 15 242 l 96 242 l 96 133 q 142 63 96 63 q 189 150 189 63 l 189 179 q 144 299 189 261 q 102 331 123 315 q 60 362 81 346 q 15 514 15 410 l 15 561 q 50 665 15 619 q 142 712 85 712 q 236 664 199 712 q 270 561 270 618 l 270 451 l 189 451 l 189 561 q 142 630 189 630 q 96 543 96 630 l 96 514 q 140 394 96 432 q 182 363 161 379 q 224 332 203 348 q 270 179 270 284 l 270 133 "},"B":{"x_min":19,"x_max":273,"ha":290,"o":"m 273 139 q 239 36 273 81 q 146 -10 202 -10 l 19 -10 l 19 937 l 146 937 q 239 889 202 937 q 273 787 273 844 l 273 596 q 206 463 273 505 q 273 329 273 421 l 273 139 m 192 573 l 192 787 q 146 856 192 856 l 100 856 l 100 503 l 146 503 q 192 573 192 503 m 192 139 l 192 353 q 146 422 192 422 l 100 422 l 100 69 l 146 69 q 192 139 192 69 "},"…":{"x_min":56.96875,"x_max":368.953125,"ha":427,"o":"m 368 -10 l 288 -10 l 288 69 l 368 69 l 368 -10 m 253 -10 l 172 -10 l 172 69 l 253 69 l 253 -10 m 137 -10 l 56 -10 l 56 69 l 137 69 l 137 -10 "},"?":{"x_min":47,"x_max":302,"ha":321,"o":"m 302 456 q 276 357 302 400 q 191 306 244 306 q 128 331 155 306 l 128 104 l 47 104 l 47 468 l 128 468 q 174 387 128 387 q 221 456 221 387 l 221 792 q 209 839 221 816 q 174 861 197 861 q 128 792 128 861 l 128 682 l 47 682 l 47 792 q 82 896 47 850 q 174 943 117 943 q 268 894 230 943 q 302 792 302 850 l 302 456 m 128 -10 l 47 -10 l 47 69 l 128 69 l 128 -10 "},"H":{"x_min":19,"x_max":273,"ha":293,"o":"m 273 -10 l 192 -10 l 192 422 l 100 422 l 100 -10 l 19 -10 l 19 937 l 100 937 l 100 502 l 192 502 l 192 937 l 273 937 l 273 -10 "},"î":{"x_min":-56.15625,"x_max":219.875,"ha":116,"o":"m 100 -10 l 19 -10 l 19 706 l 100 706 l 100 -10 m 219 742 l 122 742 l 81 801 l 41 742 l -56 742 l 41 880 l 122 880 l 219 742 "},"c":{"x_min":16,"x_max":271,"ha":286,"o":"m 271 133 q 237 30 271 73 q 143 -16 199 -16 q 51 29 86 -16 q 16 133 16 74 l 16 561 q 51 665 16 619 q 143 712 86 712 q 237 664 200 712 q 271 561 271 621 l 271 451 l 190 451 l 190 561 q 143 630 190 630 q 107 606 120 630 q 97 561 97 587 l 97 133 q 107 88 97 107 q 143 63 120 63 q 190 133 190 63 l 190 242 l 271 242 l 271 133 "},"¶":{"x_min":26,"x_max":455.328125,"ha":494,"o":"m 455 856 l 397 856 l 397 -126 l 316 -126 l 316 856 l 281 856 l 281 -126 l 200 -126 l 200 422 l 153 422 q 61 468 97 422 q 26 572 26 513 l 26 787 q 61 890 26 845 q 153 937 97 937 l 455 937 l 455 856 "},"•":{"x_min":39.34375,"x_max":236.015625,"ha":277,"o":"m 236 347 q 206 277 236 306 q 137 249 178 249 q 67 277 96 249 q 39 347 39 306 q 67 416 39 388 q 137 446 96 446 q 206 416 178 446 q 236 347 236 388 "},"¥":{"x_min":29.28125,"x_max":288.046875,"ha":319,"o":"m 288 937 q 257 732 275 855 q 214 446 239 610 l 286 446 l 286 365 l 201 365 l 200 330 l 286 330 l 286 249 l 199 249 q 199 198 199 231 q 200 118 199 166 l 200 -10 l 117 -10 l 117 249 l 32 249 l 32 330 l 117 330 l 114 365 l 32 365 l 32 446 l 102 446 q 72 639 91 517 q 29 937 54 761 l 112 937 l 158 579 l 203 937 l 288 937 "},"(":{"x_min":27,"x_max":230.75,"ha":259,"o":"m 230 -69 l 147 -69 q 54 189 81 70 q 33 317 40 249 q 27 463 27 385 q 54 736 27 618 q 147 996 81 855 l 230 996 q 135 736 162 851 q 108 463 108 615 q 135 190 108 310 q 230 -69 162 74 "},"U":{"x_min":17,"x_max":272,"ha":290,"o":"m 272 133 q 238 30 272 73 q 144 -16 200 -16 q 52 29 87 -16 q 17 133 17 74 l 17 937 l 98 937 l 98 132 q 108 87 98 106 q 144 63 121 63 q 191 132 191 63 l 191 937 l 272 937 l 272 133 "},"Ñ":{"x_min":19,"x_max":290.75,"ha":290,"o":"m 273 -10 l 194 -10 l 100 494 l 100 -10 l 19 -10 l 19 937 l 97 937 l 192 431 l 192 937 l 273 937 l 273 -10 m 290 999 q 210 972 242 972 q 172 983 195 972 q 140 995 151 995 q 59 964 115 995 l 59 1048 q 140 1075 108 1075 q 177 1064 155 1075 q 210 1052 199 1052 q 290 1084 235 1052 l 290 999 "},"F":{"x_min":19,"x_max":239.03125,"ha":239,"o":"m 239 856 l 100 856 l 100 503 l 215 503 l 215 422 l 100 422 l 100 -10 l 19 -10 l 19 937 l 239 937 l 239 856 "},"­":{"x_min":56.96875,"x_max":311.296875,"ha":370,"o":"m 311 307 l 56 307 l 56 388 l 311 388 l 311 307 "},":":{"x_min":57,"x_max":138,"ha":148,"o":"m 138 393 l 57 393 l 57 475 l 138 475 l 138 393 m 138 -10 l 57 -10 l 57 69 l 138 69 l 138 -10 "},"Û":{"x_min":17,"x_max":305.875,"ha":290,"o":"m 272 133 q 238 30 272 73 q 144 -16 200 -16 q 52 29 87 -16 q 17 133 17 74 l 17 937 l 98 937 l 98 132 q 108 87 98 106 q 144 63 121 63 q 191 132 191 63 l 191 937 l 272 937 l 272 133 m 305 973 l 208 973 l 167 1032 l 127 973 l 29 973 l 127 1111 l 208 1111 l 305 973 "},"*":{"x_min":29.6875,"x_max":341.296875,"ha":373,"o":"m 341 738 l 301 667 l 226 711 l 226 625 l 145 625 l 145 711 l 69 667 l 29 738 l 113 781 l 29 823 l 69 894 l 145 850 l 145 937 l 226 937 l 226 850 l 301 894 l 341 823 l 257 781 l 341 738 "},"†":{"x_min":15.1875,"x_max":269.8125,"ha":286,"o":"m 269 741 l 183 741 l 183 -69 l 102 -69 l 102 741 l 15 741 l 15 822 l 102 822 l 102 937 l 183 937 l 183 822 l 269 822 l 269 741 "},"°":{"x_min":39.34375,"x_max":236.015625,"ha":277,"o":"m 236 839 q 206 770 236 799 q 137 741 178 741 q 67 770 96 741 q 39 839 39 799 q 67 907 39 879 q 137 937 96 937 q 206 907 178 937 q 236 839 236 879 m 160 838 q 137 862 160 862 q 114 838 114 862 q 137 815 114 815 q 160 838 160 815 "},"V":{"x_min":8.140625,"x_max":321.484375,"ha":331,"o":"m 321 937 l 203 -10 l 122 -10 l 8 937 l 90 937 l 163 314 l 238 937 l 321 937 "},"å":{"x_min":8.140625,"x_max":324.1875,"ha":290,"o":"m 324 -10 l 239 -10 l 221 104 l 109 104 l 91 -10 l 8 -10 l 124 706 l 203 706 l 324 -10 m 206 185 l 164 451 l 122 185 l 206 185 m 265 840 q 235 770 265 799 q 166 742 207 742 q 96 770 125 742 q 68 840 68 799 q 96 908 68 879 q 166 938 125 938 q 235 908 207 938 q 265 840 265 879 m 189 839 q 166 862 189 862 q 143 839 143 862 q 166 816 143 816 q 189 839 189 816 "}," ":{"x_min":0,"x_max":0,"ha":290},"0":{"x_min":53,"x_max":308,"ha":364,"o":"m 308 133 q 274 30 308 74 q 180 -16 237 -16 q 88 29 123 -16 q 53 133 53 74 l 53 792 q 88 896 53 850 q 180 943 123 943 q 274 895 237 943 q 308 792 308 851 l 308 133 m 227 132 l 227 792 q 180 862 227 862 q 144 838 157 862 q 134 792 134 818 l 134 132 q 144 88 134 107 q 180 63 157 63 q 227 132 227 63 "},"”":{"x_min":41.375,"x_max":322.828125,"ha":355,"o":"m 322 937 l 239 799 l 168 799 l 224 937 l 322 937 m 195 937 l 112 799 l 41 799 l 96 937 l 195 937 "},"@":{"x_min":53,"x_max":539,"ha":587,"o":"m 539 249 q 497 140 539 182 q 391 98 457 98 q 344 120 362 98 q 275 98 311 98 q 190 141 223 98 q 160 234 160 181 q 160 238 160 235 q 161 250 160 243 q 169 388 166 319 q 207 530 181 483 q 318 596 244 596 q 402 555 370 596 q 433 460 433 515 q 433 455 433 459 q 432 444 433 451 l 415 234 q 414 227 415 232 q 412 216 413 222 q 410 205 411 211 q 410 194 410 198 q 421 183 410 183 q 446 208 434 183 q 458 249 458 233 l 458 561 q 446 608 458 585 q 411 631 434 631 l 180 631 q 145 608 156 631 q 134 561 134 585 l 134 133 q 144 88 134 108 q 180 64 157 64 l 452 64 l 452 -16 l 180 -16 q 86 31 123 -16 q 53 133 53 74 l 53 561 q 86 663 53 619 q 179 712 123 712 l 412 712 q 505 663 467 712 q 539 561 539 620 l 539 249 m 352 455 q 312 514 352 514 q 246 334 253 514 q 241 286 246 325 q 239 239 239 257 q 279 179 239 179 q 346 360 337 179 q 347 377 346 365 q 349 407 348 388 q 351 434 350 422 q 352 455 352 446 "},"ö":{"x_min":16,"x_max":282.65625,"ha":290,"o":"m 271 133 q 237 30 271 73 q 143 -16 199 -16 q 51 29 86 -16 q 16 133 16 74 l 16 561 q 51 665 16 619 q 143 712 86 712 q 237 664 200 712 q 271 561 271 621 l 271 133 m 190 132 l 190 561 q 143 630 190 630 q 107 606 120 630 q 97 561 97 587 l 97 132 q 107 88 97 107 q 143 63 120 63 q 190 132 190 63 m 282 741 l 201 741 l 201 822 l 282 822 l 282 741 m 166 741 l 85 741 l 85 822 l 166 822 l 166 741 "},"i":{"x_min":19,"x_max":100,"ha":120,"o":"m 100 -10 l 19 -10 l 19 706 l 100 706 l 100 -10 "},"Õ":{"x_min":17,"x_max":290.75,"ha":290,"o":"m 272 133 q 238 30 272 73 q 144 -16 200 -16 q 52 29 87 -16 q 17 133 17 74 l 17 792 q 52 896 17 850 q 144 943 87 943 q 238 895 201 943 q 272 792 272 852 l 272 133 m 191 132 l 191 792 q 144 862 191 862 q 108 838 121 862 q 98 792 98 818 l 98 132 q 108 88 98 107 q 144 63 121 63 q 191 132 191 63 m 290 999 q 210 972 242 972 q 172 983 195 972 q 140 995 151 995 q 59 964 115 995 l 59 1048 q 140 1075 108 1075 q 177 1064 155 1075 q 210 1052 199 1052 q 290 1084 235 1052 l 290 999 "},"þ":{"x_min":57,"x_max":311,"ha":329,"o":"m 311 254 q 277 152 311 196 q 183 104 240 104 l 138 104 l 138 -10 l 57 -10 l 57 706 l 138 706 l 138 590 l 183 590 q 277 542 240 590 q 311 440 311 498 l 311 254 m 230 254 l 230 440 q 183 509 230 509 l 138 509 l 138 185 l 183 185 q 230 254 230 185 "},"]":{"x_min":21,"x_max":183,"ha":243,"o":"m 183 -69 l 21 -69 l 21 11 l 102 11 l 102 914 l 21 914 l 21 996 l 183 996 l 183 -69 "},"m":{"x_min":19,"x_max":308,"ha":326,"o":"m 308 -10 l 227 -10 l 227 353 l 163 104 l 100 353 l 100 -10 l 19 -10 l 19 706 l 97 706 l 163 436 l 229 706 l 308 706 l 308 -10 "},"8":{"x_min":50,"x_max":304,"ha":357,"o":"m 304 139 q 270 36 304 81 q 177 -10 233 -10 q 85 35 120 -10 q 50 139 50 80 l 50 329 q 116 463 50 421 q 50 596 50 505 l 50 787 q 85 890 50 845 q 177 937 120 937 q 270 888 233 937 q 304 787 304 844 l 304 596 q 238 463 304 504 q 304 329 304 421 l 304 139 m 223 573 l 223 787 q 212 832 223 812 q 177 856 199 856 q 141 832 154 856 q 131 787 131 812 l 131 573 q 141 527 131 546 q 177 503 154 503 q 212 527 199 503 q 223 573 223 546 m 223 139 l 223 353 q 212 398 223 378 q 177 422 199 422 q 141 398 154 422 q 131 353 131 378 l 131 139 q 141 93 131 112 q 177 69 154 69 q 212 93 199 69 q 223 139 223 112 "},"ž":{"x_min":10.171875,"x_max":290.8125,"ha":267,"o":"m 271 706 l 112 69 l 245 69 l 245 -10 l 10 -10 l 170 625 l 37 625 l 37 706 l 271 706 m 290 880 l 193 742 l 113 742 l 15 880 l 113 880 l 153 820 l 193 880 l 290 880 "},"R":{"x_min":19,"x_max":273,"ha":292,"o":"m 273 -10 l 192 -10 l 192 353 q 146 422 192 422 l 100 422 l 100 -10 l 19 -10 l 19 937 l 146 937 q 239 889 202 937 q 273 787 273 844 l 273 596 q 206 463 273 505 q 273 329 273 421 l 273 -10 m 192 573 l 192 787 q 146 856 192 856 l 100 856 l 100 503 l 146 503 q 192 573 192 503 "},"á":{"x_min":8.140625,"x_max":324.1875,"ha":290,"o":"m 324 -10 l 239 -10 l 221 104 l 109 104 l 91 -10 l 8 -10 l 124 706 l 203 706 l 324 -10 m 206 185 l 164 451 l 122 185 l 206 185 m 241 880 l 158 742 l 87 742 l 143 880 l 241 880 "},"×":{"x_min":37.296875,"x_max":273.328125,"ha":313,"o":"m 273 285 l 216 229 l 155 290 l 93 229 l 37 285 l 98 347 l 37 408 l 93 465 l 155 403 l 216 465 l 273 408 l 211 347 l 273 285 "},"o":{"x_min":16,"x_max":271,"ha":288,"o":"m 271 133 q 237 30 271 73 q 143 -16 199 -16 q 51 29 86 -16 q 16 133 16 74 l 16 561 q 51 665 16 619 q 143 712 86 712 q 237 664 200 712 q 271 561 271 621 l 271 133 m 190 132 l 190 561 q 143 630 190 630 q 107 606 120 630 q 97 561 97 587 l 97 132 q 107 88 97 107 q 143 63 120 63 q 190 132 190 63 "},"5":{"x_min":53,"x_max":308,"ha":349,"o":"m 308 133 q 274 30 308 76 q 180 -16 237 -16 q 88 29 123 -16 q 53 133 53 74 l 53 242 l 134 242 l 134 133 q 180 63 134 63 q 216 88 202 63 q 227 133 227 108 l 227 468 q 180 538 227 538 q 132 442 132 538 q 132 431 132 441 q 134 399 133 420 l 53 399 l 53 937 l 308 937 l 308 856 l 134 856 l 134 593 q 197 618 161 618 q 282 568 250 618 q 308 468 308 524 l 308 133 "},"õ":{"x_min":16,"x_max":290.75,"ha":290,"o":"m 271 133 q 237 30 271 73 q 143 -16 199 -16 q 51 29 86 -16 q 16 133 16 74 l 16 561 q 51 665 16 619 q 143 712 86 712 q 237 664 200 712 q 271 561 271 621 l 271 133 m 190 132 l 190 561 q 143 630 190 630 q 107 606 120 630 q 97 561 97 587 l 97 132 q 107 88 97 107 q 143 63 120 63 q 190 132 190 63 m 290 768 q 210 741 242 741 q 172 752 195 741 q 140 764 151 764 q 59 733 115 764 l 59 817 q 140 844 108 844 q 177 833 155 844 q 210 821 199 821 q 290 853 235 821 l 290 768 "},"7":{"x_min":26.453125,"x_max":286.203125,"ha":295,"o":"m 286 937 l 104 -10 l 26 -10 l 193 856 l 52 856 l 52 937 l 286 937 "},"K":{"x_min":19,"x_max":277.015625,"ha":292,"o":"m 277 -10 l 192 -10 l 100 337 l 100 -10 l 19 -10 l 19 937 l 100 937 l 100 591 l 192 937 l 277 937 l 149 463 l 277 -10 "},",":{"x_min":42.734375,"x_max":126.15625,"ha":172,"o":"m 126 69 l 112 -69 l 56 -69 l 42 69 l 126 69 "},"d":{"x_min":19,"x_max":273,"ha":290,"o":"m 273 139 q 239 36 273 80 q 146 -10 202 -10 l 19 -10 l 19 706 l 146 706 q 239 658 202 706 q 273 555 273 614 l 273 139 m 192 139 l 192 555 q 146 625 192 625 l 100 625 l 100 69 l 146 69 q 192 139 192 69 "},"¨":{"x_min":56.96875,"x_max":253.65625,"ha":313,"o":"m 253 972 l 172 972 l 172 1053 l 253 1053 l 253 972 m 137 972 l 56 972 l 56 1053 l 137 1053 l 137 972 "},"Ô":{"x_min":17,"x_max":305.875,"ha":290,"o":"m 272 133 q 238 30 272 73 q 144 -16 200 -16 q 52 29 87 -16 q 17 133 17 74 l 17 792 q 52 896 17 850 q 144 943 87 943 q 238 895 201 943 q 272 792 272 852 l 272 133 m 191 132 l 191 792 q 144 862 191 862 q 108 838 121 862 q 98 792 98 818 l 98 132 q 108 88 98 107 q 144 63 121 63 q 191 132 191 63 m 305 973 l 208 973 l 167 1032 l 127 973 l 29 973 l 127 1111 l 208 1111 l 305 973 "},"E":{"x_min":19,"x_max":239,"ha":246,"o":"m 239 -10 l 19 -10 l 19 937 l 238 937 l 238 856 l 100 856 l 100 503 l 215 503 l 215 422 l 100 422 l 100 69 l 239 69 l 239 -10 "},"Y":{"x_min":8.1875,"x_max":266.53125,"ha":274,"o":"m 266 937 l 206 539 q 178 347 194 474 q 176 292 177 321 q 175 231 175 263 q 175 181 175 211 q 177 109 176 150 q 178 38 177 68 q 178 -10 178 8 l 95 -10 l 95 307 q 87 382 95 325 q 65 539 80 440 l 8 937 l 91 937 l 136 579 l 181 937 l 266 937 "},"\"":{"x_min":50.859375,"x_max":250.265625,"ha":302,"o":"m 250 937 l 236 799 l 180 799 l 166 937 l 250 937 m 134 937 l 120 799 l 65 799 l 50 937 l 134 937 "},"‹":{"x_min":9.5,"x_max":236.015625,"ha":278,"o":"m 236 17 l 163 -14 l 9 314 l 163 645 l 236 611 l 98 314 l 236 17 "},"ê":{"x_min":12.84375,"x_max":288.875,"ha":254,"o":"m 239 -10 l 19 -10 l 19 706 l 238 706 l 238 625 l 100 625 l 100 388 l 215 388 l 215 307 l 100 307 l 100 69 l 239 69 l 239 -10 m 288 742 l 191 742 l 150 801 l 110 742 l 12 742 l 110 880 l 191 880 l 288 742 "},"Ï":{"x_min":-0.03125,"x_max":196.65625,"ha":116,"o":"m 100 -10 l 19 -10 l 19 937 l 100 937 l 100 -10 m 196 972 l 115 972 l 115 1053 l 196 1053 l 196 972 m 80 972 l 0 972 l 0 1053 l 80 1053 l 80 972 "},"„":{"x_min":41.375,"x_max":322.828125,"ha":355,"o":"m 322 69 l 239 -69 l 168 -69 l 224 69 l 322 69 m 195 69 l 112 -69 l 41 -69 l 96 69 l 195 69 "},"Â":{"x_min":9.5,"x_max":322.828125,"ha":290,"o":"m 322 -10 l 239 -10 l 219 162 l 112 162 l 91 -10 l 9 -10 l 124 937 l 204 937 l 322 -10 m 209 242 l 164 612 l 120 242 l 209 242 m 305 973 l 208 973 l 167 1032 l 127 973 l 29 973 l 127 1111 l 208 1111 l 305 973 "},"´":{"x_min":29.84375,"x_max":183.796875,"ha":201,"o":"m 183 1111 l 100 973 l 29 973 l 85 1111 l 183 1111 "},"Í":{"x_min":1.84375,"x_max":155.796875,"ha":116,"o":"m 100 -10 l 19 -10 l 19 937 l 100 937 l 100 -10 m 155 1111 l 72 973 l 1 973 l 57 1111 l 155 1111 "},"ì":{"x_min":-11.71875,"x_max":142.234375,"ha":116,"o":"m 100 -10 l 19 -10 l 19 706 l 100 706 l 100 -10 m 142 742 l 71 742 l -11 880 l 86 880 l 142 742 "},"±":{"x_min":35,"x_max":290,"ha":326,"o":"m 290 307 l 203 307 l 203 220 l 122 220 l 122 307 l 35 307 l 35 388 l 122 388 l 122 475 l 203 475 l 203 388 l 290 388 l 290 307 m 290 -10 l 35 -10 l 35 69 l 290 69 l 290 -10 "},"Ú":{"x_min":17,"x_max":272,"ha":290,"o":"m 272 133 q 238 30 272 73 q 144 -16 200 -16 q 52 29 87 -16 q 17 133 17 74 l 17 937 l 98 937 l 98 132 q 108 87 98 106 q 144 63 121 63 q 191 132 191 63 l 191 937 l 272 937 l 272 133 m 241 1111 l 158 973 l 87 973 l 143 1111 l 241 1111 "},"|":{"x_min":57,"x_max":138,"ha":200,"o":"m 138 -69 l 57 -69 l 57 996 l 138 996 l 138 -69 "},"Ý":{"x_min":8.1875,"x_max":266.53125,"ha":231,"o":"m 266 937 l 206 539 q 178 347 194 474 q 176 292 177 321 q 175 231 175 263 q 175 181 175 211 q 177 109 176 150 q 178 38 177 68 q 178 -10 178 8 l 95 -10 l 95 307 q 87 382 95 325 q 65 539 80 440 l 8 937 l 91 937 l 136 579 l 181 937 l 266 937 m 212 1111 l 129 973 l 58 973 l 114 1111 l 212 1111 "},"b":{"x_min":19,"x_max":273,"ha":290,"o":"m 273 139 q 239 36 273 81 q 146 -10 202 -10 l 19 -10 l 19 706 l 146 706 q 239 658 202 706 q 273 555 273 613 l 273 480 q 206 347 273 389 q 273 214 273 305 l 273 139 m 192 457 l 192 555 q 146 625 192 625 l 100 625 l 100 387 l 146 387 q 192 457 192 387 m 192 139 l 192 237 q 146 306 192 306 l 100 306 l 100 69 l 146 69 q 192 139 192 69 "},"q":{"x_min":17,"x_max":301.15625,"ha":314,"o":"m 301 -10 l 144 -10 q 52 35 87 -10 q 17 139 17 80 l 17 561 q 52 665 17 619 q 144 712 87 712 q 238 664 201 712 q 272 561 272 621 l 272 138 q 253 69 272 98 l 301 69 l 301 -10 m 191 138 l 191 561 q 144 630 191 630 q 108 606 121 630 q 98 561 98 586 l 98 138 q 108 93 98 112 q 144 69 121 69 q 191 138 191 69 "},"Ö":{"x_min":17,"x_max":282.65625,"ha":290,"o":"m 272 133 q 238 30 272 73 q 144 -16 200 -16 q 52 29 87 -16 q 17 133 17 74 l 17 792 q 52 896 17 850 q 144 943 87 943 q 238 895 201 943 q 272 792 272 852 l 272 133 m 191 132 l 191 792 q 144 862 191 862 q 108 838 121 862 q 98 792 98 818 l 98 132 q 108 88 98 107 q 144 63 121 63 q 191 132 191 63 m 282 972 l 201 972 l 201 1053 l 282 1053 l 282 972 m 166 972 l 85 972 l 85 1053 l 166 1053 l 166 972 "},"z":{"x_min":10.171875,"x_max":271.96875,"ha":284,"o":"m 271 706 l 112 69 l 245 69 l 245 -10 l 10 -10 l 170 625 l 37 625 l 37 706 l 271 706 "},"™":{"x_min":37.1875,"x_max":558,"ha":616,"o":"m 558 219 l 477 219 l 477 584 l 413 335 l 349 584 l 349 219 l 268 219 l 268 856 l 205 856 l 205 220 l 124 220 l 124 856 l 37 856 l 37 937 l 347 937 l 412 667 l 479 937 l 558 937 l 558 219 "},"ã":{"x_min":8.140625,"x_max":324.1875,"ha":290,"o":"m 324 -10 l 239 -10 l 221 104 l 109 104 l 91 -10 l 8 -10 l 124 706 l 203 706 l 324 -10 m 206 185 l 164 451 l 122 185 l 206 185 m 290 768 q 210 741 242 741 q 172 752 195 741 q 140 764 151 764 q 59 733 115 764 l 59 817 q 140 844 108 844 q 177 833 155 844 q 210 821 199 821 q 290 853 235 821 l 290 768 "},"æ":{"x_min":6.375,"x_max":459,"ha":473,"o":"m 459 -10 l 239 -10 l 239 191 l 157 191 l 89 -10 l 6 -10 l 242 706 l 458 706 l 458 625 l 322 625 l 322 272 l 435 272 l 435 191 l 322 191 l 322 69 l 459 69 l 459 -10 m 239 272 l 239 466 l 180 272 l 239 272 "},"®":{"x_min":53,"x_max":539,"ha":594,"o":"m 539 133 q 505 31 539 74 q 412 -16 468 -16 l 179 -16 q 86 31 123 -16 q 53 133 53 74 l 53 561 q 86 663 53 619 q 179 712 123 712 l 412 712 q 505 663 467 712 q 539 561 539 619 l 539 133 m 458 133 l 458 561 q 447 606 458 587 q 411 631 434 631 l 180 631 q 144 606 157 631 q 134 561 134 586 l 134 133 q 144 88 134 107 q 180 64 157 64 l 411 64 q 447 88 434 64 q 458 133 458 107 m 424 104 l 342 104 q 342 115 342 107 q 344 136 343 123 l 344 170 q 296 266 344 266 l 250 266 l 250 104 l 169 104 l 169 590 l 296 590 q 390 541 353 590 q 424 440 424 497 q 357 306 424 348 q 424 173 424 264 l 424 104 m 342 416 l 342 440 q 330 486 342 463 q 296 509 319 509 l 250 509 l 250 347 l 296 347 q 332 371 318 347 q 342 416 342 392 "},"É":{"x_min":19,"x_max":239,"ha":254,"o":"m 239 -10 l 19 -10 l 19 937 l 238 937 l 238 856 l 100 856 l 100 503 l 215 503 l 215 422 l 100 422 l 100 69 l 239 69 l 239 -10 m 224 1111 l 141 973 l 70 973 l 126 1111 l 224 1111 "},"~":{"x_min":44.078125,"x_max":414.390625,"ha":455,"o":"m 414 862 q 286 810 339 810 q 225 833 259 810 q 171 856 191 856 q 44 800 126 856 l 44 885 q 171 937 118 937 q 232 913 198 937 q 286 890 266 890 q 414 948 331 890 l 414 862 "},"¡":{"x_min":37.46875,"x_max":119,"ha":163,"o":"m 119 740 l 37 740 l 37 822 l 119 822 l 119 740 m 119 -126 l 37 -126 l 49 648 l 107 648 l 119 -126 "},"[":{"x_min":57,"x_max":219.0625,"ha":241,"o":"m 219 -69 l 57 -69 l 57 996 l 219 996 l 219 914 l 138 914 l 138 11 l 219 11 l 219 -69 "},"L":{"x_min":19,"x_max":239.03125,"ha":239,"o":"m 239 -10 l 19 -10 l 19 937 l 100 937 l 100 69 l 239 69 l 239 -10 "}," ":{"x_min":0,"x_max":0,"ha":290},"%":{"x_min":31,"x_max":575,"ha":608,"o":"m 575 139 q 541 36 575 79 q 447 -10 503 -10 q 356 35 391 -10 q 321 139 321 80 l 321 335 q 321 346 321 341 q 321 355 321 350 l 232 -65 l 152 -48 l 278 538 q 158 440 247 440 q 66 486 102 440 q 31 589 31 531 l 31 787 q 66 890 31 845 q 158 937 102 937 q 252 889 214 937 q 286 787 286 845 l 286 589 q 285 580 286 585 q 284 570 285 575 l 373 992 l 453 975 l 328 386 q 447 486 359 486 q 541 438 504 486 q 575 335 575 395 l 575 139 m 205 590 l 205 787 q 158 856 205 856 q 122 832 135 856 q 112 787 112 812 l 112 590 q 122 545 112 564 q 158 520 135 520 q 205 590 205 520 m 494 139 l 494 335 q 447 404 494 404 q 412 380 424 404 q 402 335 402 361 l 402 139 q 412 93 402 112 q 447 69 424 69 q 494 139 494 69 "},"P":{"x_min":19,"x_max":273,"ha":278,"o":"m 273 572 q 239 469 273 515 q 145 422 202 422 l 100 422 l 100 -10 l 19 -10 l 19 937 l 146 937 q 239 889 202 937 q 273 787 273 844 l 273 572 m 192 573 l 192 787 q 146 856 192 856 l 100 856 l 100 503 l 146 503 q 192 573 192 503 "},"À":{"x_min":9.5,"x_max":322.828125,"ha":290,"o":"m 322 -10 l 239 -10 l 219 162 l 112 162 l 91 -10 l 9 -10 l 124 937 l 204 937 l 322 -10 m 209 242 l 164 612 l 120 242 l 209 242 m 228 973 l 157 973 l 74 1111 l 172 1111 l 228 973 "},"_":{"x_min":56.96875,"x_max":368.28125,"ha":426,"o":"m 368 -10 l 56 -10 l 56 69 l 368 69 l 368 -10 "},"ñ":{"x_min":19,"x_max":290.75,"ha":290,"o":"m 273 -10 l 194 -10 l 100 365 l 100 -10 l 19 -10 l 19 706 l 97 706 l 192 329 l 192 706 l 273 706 l 273 -10 m 290 768 q 210 741 242 741 q 172 752 195 741 q 140 764 151 764 q 59 733 115 764 l 59 817 q 140 844 108 844 q 177 833 155 844 q 210 821 199 821 q 290 853 235 821 l 290 768 "},"+":{"x_min":19.1875,"x_max":273.8125,"ha":295,"o":"m 273 307 l 187 307 l 187 220 l 106 220 l 106 307 l 19 307 l 19 388 l 106 388 l 106 475 l 187 475 l 187 388 l 273 388 l 273 307 "},"‚":{"x_min":29.84375,"x_max":183.796875,"ha":201,"o":"m 183 69 l 100 -69 l 29 -69 l 85 69 l 183 69 "},"Æ":{"x_min":6.734375,"x_max":458,"ha":470,"o":"m 458 -10 l 238 -10 l 238 278 l 157 278 l 89 -10 l 6 -10 l 240 937 l 457 937 l 457 856 l 321 856 l 321 359 l 434 359 l 434 278 l 321 278 l 321 69 l 458 69 l 458 -10 m 238 359 l 238 618 l 177 359 l 238 359 "},"Ë":{"x_min":19,"x_max":265.65625,"ha":254,"o":"m 239 -10 l 19 -10 l 19 937 l 238 937 l 238 856 l 100 856 l 100 503 l 215 503 l 215 422 l 100 422 l 100 69 l 239 69 l 239 -10 m 265 972 l 184 972 l 184 1053 l 265 1053 l 265 972 m 149 972 l 68 972 l 68 1053 l 149 1053 l 149 972 "},"'":{"x_min":42.734375,"x_max":126.15625,"ha":172,"o":"m 126 937 l 112 799 l 56 799 l 42 937 l 126 937 "},"Š":{"x_min":15,"x_max":301.8125,"ha":290,"o":"m 270 133 q 236 31 270 75 q 142 -16 199 -16 q 50 29 85 -16 q 15 133 15 74 l 15 242 l 96 242 l 96 133 q 142 63 96 63 q 178 88 165 63 q 189 133 189 108 l 189 237 q 144 386 189 312 q 60 514 102 451 q 15 688 15 596 l 15 792 q 48 894 15 850 q 142 943 85 943 q 236 895 199 943 q 270 792 270 849 l 270 682 l 189 682 l 189 792 q 142 861 189 861 q 107 839 118 861 q 96 792 96 816 l 96 688 q 140 539 96 612 q 182 474 161 506 q 224 409 203 442 q 270 237 270 329 l 270 133 m 301 1111 l 204 973 l 124 973 l 26 1111 l 124 1111 l 164 1051 l 204 1111 l 301 1111 "},"Œ":{"x_min":54,"x_max":448,"ha":482,"o":"m 448 -10 l 228 -10 l 228 8 q 164 -16 200 -16 q 79 33 111 -16 q 54 133 54 77 l 54 792 q 79 892 54 848 q 164 943 111 943 q 228 917 200 943 l 228 937 l 447 937 l 447 856 l 309 856 l 309 503 l 424 503 l 424 422 l 309 422 l 309 69 l 448 69 l 448 -10 m 228 132 l 228 792 q 181 862 228 862 q 145 838 158 862 q 135 792 135 818 l 135 132 q 145 88 135 107 q 181 63 158 63 q 228 132 228 63 "},"T":{"x_min":6.1875,"x_max":260.8125,"ha":267,"o":"m 260 856 l 174 856 l 174 -10 l 93 -10 l 93 856 l 6 856 l 6 937 l 260 937 l 260 856 "},"š":{"x_min":15,"x_max":301.8125,"ha":290,"o":"m 270 133 q 236 30 270 76 q 142 -16 199 -16 q 50 29 85 -16 q 15 133 15 74 l 15 242 l 96 242 l 96 133 q 142 63 96 63 q 189 150 189 63 l 189 179 q 144 299 189 261 q 102 331 123 315 q 60 362 81 346 q 15 514 15 410 l 15 561 q 50 665 15 619 q 142 712 85 712 q 236 664 199 712 q 270 561 270 618 l 270 451 l 189 451 l 189 561 q 142 630 189 630 q 96 543 96 630 l 96 514 q 140 394 96 432 q 182 363 161 379 q 224 332 203 348 q 270 179 270 284 l 270 133 m 301 880 l 204 742 l 124 742 l 26 880 l 124 880 l 164 820 l 204 880 l 301 880 "},"Þ":{"x_min":57,"x_max":311,"ha":340,"o":"m 311 254 q 277 152 311 196 q 183 104 240 104 l 138 104 l 138 -10 l 57 -10 l 57 937 l 138 937 l 138 821 l 183 821 q 277 774 240 821 q 311 671 311 728 l 311 254 m 230 254 l 230 671 q 183 740 230 740 l 138 740 l 138 185 l 183 185 q 230 254 230 185 "},"j":{"x_min":4,"x_max":258,"ha":277,"o":"m 258 133 q 224 30 258 74 q 131 -16 186 -16 q 39 29 74 -16 q 4 133 4 74 l 4 242 l 85 242 l 85 133 q 95 88 85 107 q 131 64 108 64 q 177 133 177 64 l 177 706 l 258 706 l 258 133 "},"1":{"x_min":13.359375,"x_max":152,"ha":212,"o":"m 152 -10 l 71 -10 l 71 856 l 13 856 l 13 937 l 152 937 l 152 -10 "},"›":{"x_min":40.6875,"x_max":267.21875,"ha":277,"o":"m 267 314 l 113 -14 l 40 17 l 178 314 l 40 611 l 113 645 l 267 314 "},"ä":{"x_min":8.140625,"x_max":324.1875,"ha":290,"o":"m 324 -10 l 239 -10 l 221 104 l 109 104 l 91 -10 l 8 -10 l 124 706 l 203 706 l 324 -10 m 206 185 l 164 451 l 122 185 l 206 185 m 282 741 l 201 741 l 201 822 l 282 822 l 282 741 m 166 741 l 85 741 l 85 822 l 166 822 l 166 741 "},"<":{"x_min":9.5,"x_max":236.015625,"ha":279,"o":"m 236 51 l 163 18 l 9 347 l 163 677 l 236 643 l 98 347 l 236 51 "},"t":{"x_min":7.1875,"x_max":261.8125,"ha":270,"o":"m 261 625 l 175 625 l 175 -10 l 94 -10 l 94 625 l 7 625 l 7 706 l 261 706 l 261 625 "},"ù":{"x_min":17,"x_max":272,"ha":290,"o":"m 272 133 q 238 30 272 73 q 144 -16 200 -16 q 52 29 87 -16 q 17 133 17 74 l 17 706 l 98 706 l 98 132 q 108 88 98 107 q 144 63 121 63 q 191 132 191 63 l 191 706 l 272 706 l 272 133 m 228 742 l 157 742 l 74 880 l 172 880 l 228 742 "},"W":{"x_min":14,"x_max":380.6875,"ha":395,"o":"m 380 937 l 321 -10 l 239 -10 l 195 346 l 152 -10 l 70 -10 l 14 937 l 97 937 l 123 355 l 197 828 l 269 356 l 297 937 l 380 937 "},"ï":{"x_min":-0.03125,"x_max":196.65625,"ha":116,"o":"m 100 -10 l 19 -10 l 19 706 l 100 706 l 100 -10 m 196 741 l 115 741 l 115 822 l 196 822 l 196 741 m 80 741 l 0 741 l 0 822 l 80 822 l 80 741 "},">":{"x_min":40.6875,"x_max":267.21875,"ha":277,"o":"m 267 347 l 113 18 l 40 51 l 178 347 l 40 643 l 113 677 l 267 347 "},"v":{"x_min":8.140625,"x_max":324.1875,"ha":332,"o":"m 324 706 l 203 -10 l 124 -10 l 8 706 l 91 706 l 164 242 l 240 706 l 324 706 "},"û":{"x_min":17,"x_max":305.875,"ha":290,"o":"m 272 133 q 238 30 272 73 q 144 -16 200 -16 q 52 29 87 -16 q 17 133 17 74 l 17 706 l 98 706 l 98 132 q 108 88 98 107 q 144 63 121 63 q 191 132 191 63 l 191 706 l 272 706 l 272 133 m 305 742 l 208 742 l 167 801 l 127 742 l 29 742 l 127 880 l 208 880 l 305 742 "},"Ò":{"x_min":17,"x_max":272,"ha":290,"o":"m 272 133 q 238 30 272 73 q 144 -16 200 -16 q 52 29 87 -16 q 17 133 17 74 l 17 792 q 52 896 17 850 q 144 943 87 943 q 238 895 201 943 q 272 792 272 852 l 272 133 m 191 132 l 191 792 q 144 862 191 862 q 108 838 121 862 q 98 792 98 818 l 98 132 q 108 88 98 107 q 144 63 121 63 q 191 132 191 63 m 228 973 l 157 973 l 74 1111 l 172 1111 l 228 973 "},"&":{"x_min":51,"x_max":334.484375,"ha":369,"o":"m 334 422 l 306 422 l 306 139 q 272 37 306 81 q 178 -10 234 -10 q 84 37 121 -10 q 51 139 51 81 l 51 329 q 116 463 51 421 q 51 596 51 504 l 51 787 q 84 888 51 844 q 178 937 121 937 q 272 888 234 937 q 306 787 306 844 l 306 682 l 225 682 l 225 787 q 213 833 225 810 q 178 856 202 856 q 143 833 154 856 q 132 787 132 810 l 132 572 q 142 527 132 548 q 178 503 155 503 l 334 503 l 334 422 m 225 139 l 225 422 l 178 422 q 143 399 154 422 q 132 353 132 376 l 132 139 q 142 93 132 114 q 178 69 155 69 q 214 93 201 69 q 225 139 225 114 "},"I":{"x_min":19,"x_max":100,"ha":120,"o":"m 100 -10 l 19 -10 l 19 937 l 100 937 l 100 -10 "},"ˉ":{"x_min":56.96875,"x_max":253.65625,"ha":313,"o":"m 253 972 l 56 972 l 56 1053 l 253 1053 l 253 972 "},"G":{"x_min":17,"x_max":272,"ha":290,"o":"m 272 -10 l 191 -10 l 191 8 q 127 -16 163 -16 q 42 33 73 -16 q 17 133 17 76 l 17 792 q 50 894 17 850 q 144 943 87 943 q 238 895 201 943 q 272 792 272 850 l 272 682 l 191 682 l 191 792 q 144 861 191 861 q 109 839 120 861 q 98 792 98 816 l 98 133 q 108 88 98 107 q 144 63 121 63 q 191 133 191 63 l 191 422 l 132 422 l 132 503 l 272 503 l 272 -10 "},"`":{"x_min":16.28125,"x_max":170.234375,"ha":203,"o":"m 170 973 l 99 973 l 16 1111 l 114 1111 l 170 973 "},"·":{"x_min":56.96875,"x_max":137.671875,"ha":200,"o":"m 137 307 l 56 307 l 56 388 l 137 388 l 137 307 "},"r":{"x_min":19,"x_max":273,"ha":290,"o":"m 273 -10 l 192 -10 l 192 237 q 146 306 192 306 l 100 306 l 100 -10 l 19 -10 l 19 706 l 146 706 q 239 658 202 706 q 273 555 273 613 l 273 480 q 206 347 273 389 q 273 214 273 305 l 273 -10 m 192 457 l 192 555 q 146 625 192 625 l 100 625 l 100 387 l 146 387 q 192 457 192 387 "},"¿":{"x_min":19,"x_max":273,"ha":321,"o":"m 273 740 l 192 740 l 192 822 l 273 822 l 273 740 m 273 17 q 239 -84 273 -38 q 146 -132 202 -132 q 52 -83 89 -132 q 19 17 19 -39 l 19 353 q 44 452 19 409 q 128 503 75 503 q 192 478 164 503 l 192 706 l 273 706 l 273 341 l 192 341 q 146 422 192 422 q 100 353 100 422 l 100 17 q 110 -26 100 -5 q 146 -50 123 -50 q 192 17 192 -50 l 192 127 l 273 127 l 273 17 "},"ý":{"x_min":8.1875,"x_max":266.171875,"ha":231,"o":"m 266 706 q 245 593 258 660 q 215 435 232 526 l 178 229 l 178 180 l 178 -10 l 95 -10 l 95 101 q 96 166 95 139 q 96 214 96 194 q 60 457 96 284 q 33 581 46 519 q 8 706 21 642 l 91 706 l 136 421 l 181 706 l 266 706 m 212 880 l 129 742 l 58 742 l 114 880 l 212 880 "},"x":{"x_min":14.921875,"x_max":276.71875,"ha":293,"o":"m 276 -10 l 191 -10 l 145 180 l 99 -10 l 14 -10 l 104 347 l 14 706 l 99 706 l 145 514 l 191 706 l 276 706 l 187 347 l 276 -10 "},"è":{"x_min":19,"x_max":239,"ha":254,"o":"m 239 -10 l 19 -10 l 19 706 l 238 706 l 238 625 l 100 625 l 100 388 l 215 388 l 215 307 l 100 307 l 100 69 l 239 69 l 239 -10 m 211 742 l 140 742 l 57 880 l 155 880 l 211 742 "},"Ø":{"x_min":13.75,"x_max":314.5625,"ha":326,"o":"m 314 975 l 279 815 q 282 792 282 802 l 282 133 q 248 30 282 73 q 155 -16 210 -16 q 106 -4 131 -16 l 93 -65 l 13 -48 l 40 70 q 28 132 28 102 l 28 792 q 63 896 28 850 q 155 943 98 943 q 221 921 191 943 l 234 992 l 314 975 m 199 818 q 155 862 189 862 q 119 838 133 862 q 109 792 109 819 l 109 396 l 199 818 m 201 132 l 201 442 l 124 80 q 154 63 135 63 q 201 132 201 63 "},"÷":{"x_min":17.640625,"x_max":271.96875,"ha":290,"o":"m 185 422 l 104 422 l 104 503 l 185 503 l 185 422 m 271 307 l 17 307 l 17 388 l 271 388 l 271 307 m 185 191 l 104 191 l 104 271 l 185 271 l 185 191 "},"h":{"x_min":19,"x_max":273,"ha":293,"o":"m 273 -10 l 192 -10 l 192 306 l 100 306 l 100 -10 l 19 -10 l 19 706 l 100 706 l 100 387 l 192 387 l 192 706 l 273 706 l 273 -10 "},".":{"x_min":56.96875,"x_max":137.671875,"ha":200,"o":"m 137 -10 l 56 -10 l 56 69 l 137 69 l 137 -10 "},";":{"x_min":44.078125,"x_max":127.5,"ha":174,"o":"m 126 393 l 45 393 l 45 475 l 126 475 l 126 393 m 127 68 l 113 -69 l 57 -69 l 44 68 l 127 68 "},"f":{"x_min":19,"x_max":239.03125,"ha":241,"o":"m 239 625 l 100 625 l 100 388 l 215 388 l 215 307 l 100 307 l 100 -10 l 19 -10 l 19 706 l 239 706 l 239 625 "},"“":{"x_min":31.203125,"x_max":312.65625,"ha":355,"o":"m 312 799 l 242 799 l 158 937 l 257 937 l 312 799 m 185 799 l 114 799 l 31 937 l 129 937 l 185 799 "},"A":{"x_min":9.5,"x_max":322.828125,"ha":332,"o":"m 322 -10 l 239 -10 l 219 162 l 112 162 l 91 -10 l 9 -10 l 124 937 l 204 937 l 322 -10 m 209 242 l 164 612 l 120 242 l 209 242 "},"6":{"x_min":53,"x_max":308,"ha":360,"o":"m 308 133 q 274 30 308 76 q 180 -16 237 -16 q 86 30 124 -16 q 53 133 53 73 l 53 792 q 88 896 53 850 q 180 943 123 943 q 274 894 237 943 q 308 792 308 850 l 308 682 l 227 682 l 227 792 q 214 839 227 816 q 180 861 203 861 q 134 792 134 861 l 134 593 q 197 619 161 619 q 282 568 250 619 q 308 468 308 524 l 308 133 m 227 132 l 227 468 q 180 538 227 538 q 134 468 134 538 l 134 132 q 180 63 134 63 q 216 88 202 63 q 227 132 227 107 "},"‘":{"x_min":16.28125,"x_max":170.234375,"ha":203,"o":"m 170 799 l 99 799 l 16 937 l 114 937 l 170 799 "},"O":{"x_min":17,"x_max":272,"ha":290,"o":"m 272 133 q 238 30 272 73 q 144 -16 200 -16 q 52 29 87 -16 q 17 133 17 74 l 17 792 q 52 896 17 850 q 144 943 87 943 q 238 895 201 943 q 272 792 272 852 l 272 133 m 191 132 l 191 792 q 144 862 191 862 q 108 838 121 862 q 98 792 98 818 l 98 132 q 108 88 98 107 q 144 63 121 63 q 191 132 191 63 "},"n":{"x_min":19,"x_max":273,"ha":293,"o":"m 273 -10 l 194 -10 l 100 365 l 100 -10 l 19 -10 l 19 706 l 97 706 l 192 329 l 192 706 l 273 706 l 273 -10 "},"3":{"x_min":44,"x_max":299,"ha":351,"o":"m 299 139 q 265 36 299 80 q 171 -10 227 -10 q 79 35 114 -10 q 44 139 44 80 l 44 242 l 125 242 l 125 139 q 135 93 125 112 q 171 69 148 69 q 207 93 194 69 q 218 139 218 112 l 218 353 q 207 398 218 379 q 171 422 194 422 l 102 422 l 102 503 l 171 503 q 207 527 194 503 q 218 572 218 546 l 218 787 q 207 831 218 812 q 171 856 194 856 q 135 831 148 856 q 125 787 125 812 l 125 682 l 44 682 l 44 787 q 79 890 44 845 q 171 937 115 937 q 265 889 228 937 q 299 787 299 845 l 299 596 q 233 463 299 504 q 299 329 299 421 l 299 139 "},"9":{"x_min":50,"x_max":304,"ha":360,"o":"m 304 133 q 270 30 304 76 q 177 -16 233 -16 q 83 31 120 -16 q 50 133 50 75 l 50 242 l 131 242 l 131 133 q 141 88 131 108 q 177 63 154 63 q 223 133 223 63 l 223 332 q 160 306 195 306 q 75 357 106 306 q 50 457 50 401 l 50 792 q 83 894 50 850 q 177 943 120 943 q 270 895 233 943 q 304 792 304 849 l 304 133 m 223 457 l 223 792 q 177 862 223 862 q 141 838 154 862 q 131 792 131 818 l 131 457 q 177 387 131 387 q 223 457 223 387 "},"l":{"x_min":19,"x_max":239.03125,"ha":241,"o":"m 239 -10 l 19 -10 l 19 706 l 100 706 l 100 69 l 239 69 l 239 -10 "},"4":{"x_min":24,"x_max":279,"ha":338,"o":"m 279 -10 l 198 -10 l 198 306 l 24 306 l 24 937 l 105 937 l 105 387 l 198 387 l 198 937 l 279 937 l 279 -10 "},"p":{"x_min":19,"x_max":273,"ha":278,"o":"m 273 457 q 239 354 273 400 q 145 306 202 306 l 100 306 l 100 -10 l 19 -10 l 19 706 l 146 706 q 239 658 202 706 q 273 555 273 613 l 273 457 m 192 457 l 192 555 q 146 625 192 625 l 100 625 l 100 387 l 146 387 q 192 457 192 387 "},"‡":{"x_min":18,"x_max":272,"ha":290,"o":"m 272 509 l 185 509 l 185 -69 l 104 -69 l 104 509 l 18 509 l 18 590 l 104 590 l 104 741 l 18 741 l 18 822 l 104 822 l 104 937 l 185 937 l 185 822 l 272 822 l 272 741 l 185 741 l 185 590 l 272 590 l 272 509 "},"à":{"x_min":8.140625,"x_max":324.1875,"ha":290,"o":"m 324 -10 l 239 -10 l 221 104 l 109 104 l 91 -10 l 8 -10 l 124 706 l 203 706 l 324 -10 m 206 185 l 164 451 l 122 185 l 206 185 m 228 742 l 157 742 l 74 880 l 172 880 l 228 742 "},"Ü":{"x_min":17,"x_max":282.65625,"ha":290,"o":"m 272 133 q 238 30 272 73 q 144 -16 200 -16 q 52 29 87 -16 q 17 133 17 74 l 17 937 l 98 937 l 98 132 q 108 87 98 106 q 144 63 121 63 q 191 132 191 63 l 191 937 l 272 937 l 272 133 m 282 972 l 201 972 l 201 1053 l 282 1053 l 282 972 m 166 972 l 85 972 l 85 1053 l 166 1053 l 166 972 "},"ó":{"x_min":16,"x_max":271,"ha":290,"o":"m 271 133 q 237 30 271 73 q 143 -16 199 -16 q 51 29 86 -16 q 16 133 16 74 l 16 561 q 51 665 16 619 q 143 712 86 712 q 237 664 200 712 q 271 561 271 621 l 271 133 m 190 132 l 190 561 q 143 630 190 630 q 107 606 120 630 q 97 561 97 587 l 97 132 q 107 88 97 107 q 143 63 120 63 q 190 132 190 63 m 241 880 l 158 742 l 87 742 l 143 880 l 241 880 "}}}
